# xmcd
# 
# Track frame offsets:
#     150
#     18400
#     35487
#     51700
#     63700
#     78087
#     92600
#     111712
#     123862
#     135412
#     153650
#     166937
#     188575
#     209150
#     226487
#     243537
# 
# Disc length: 3605
# 
# Revision: 2
# Processed by: cddbd v1.5.2PL0 Copyright (c) Steve Scherf et al.
# Submitted via: fre:ac v1.0.31
# 
DISCID=e30e1310
DTITLE=Fred Feiermann und seine Partylöwen - Halligalli 93
DYEAR=0
DGENRE=Country
TTITLE0=Schlagerschätze (Potpurri)
TTITLE1=Moritaten - Moritaten (Potpurri)
TTITLE2=Wenn wieder Urlaub ist (Potpurri)
TTITLE3=Goldenes Vogelhändler-Potpurri
TTITLE4=Tango tanzen (Potpurri)
TTITLE5=Rheinparty - Weinparty (Potpurri)
TTITLE6=Der Charme der frühen Jahre (Potpurri)
TTITLE7=Folklore kaputt (Potpurri)
TTITLE8=Puszta-Party zum Mitsingen (Potpurri)
TTITLE9=Schlager-Express (Potpurri)
TTITLE10=Hawaiin Paradise-Party (Potpurri)
TTITLE11=Melodie-Oldies (Potpurri)
TTITLE12=Schunkeln im Dutzend (Potpurri)
TTITLE13=Unter blauem Himmel (Potpurri)
TTITLE14=Draufgemacht (Potpurri)
TTITLE15=Musikantenparty (Potpurri)
EXTD=CD-Nr. 2
EXTT0=
EXTT1=
EXTT2=
EXTT3=
EXTT4=
EXTT5=
EXTT6=
EXTT7=
EXTT8=
EXTT9=
EXTT10=
EXTT11=
EXTT12=
EXTT13=
EXTT14=
EXTT15=
PLAYORDER=
